#!OML:ASF F:\VICON\USERDATA\INSTALL\rory3\rory3.ASF
:FULLY-SPECIFIED
:DEGREES
226
root 2.20177 17.4401 -24.0774 1.97332 2.07685 -1.59436
lowerback 18.7056 3.14779 3.13123
upperback 2.26516 5.12274 3.91417
thorax -8.10932 2.42658 1.15721
lowerneck -5.31541 -8.45959 -8.28309
upperneck 30.4327 -10.1423 -1.56647
head 11.0973 -5.63576 -0.281561
rclavicle 2.66371e-014 -1.59028e-014
rhumerus -15.2234 -47.6031 -68.9234
rradius 25.9372
rwrist -14.5987
rhand -18.2951 -2.78213
rfingers 7.12502
rthumb 7.98553 -32.6113
lclavicle 2.66371e-014 -1.59028e-014
lhumerus -41.6149 6.0824 82.9064
lradius 55.1324
lwrist 5.44792
lhand -9.92864 50.2296
lfingers 7.12502
lthumb 16.0524 79.5847
rfemur 5.09185 -0.150082 23.6756
rtibia 31.5678
rfoot -19.406 -23.0042
rtoes -4.77414
lfemur -28.5373 -6.07094 -16.4683
ltibia 40.6865
lfoot -12.2437 9.34326
ltoes -5.83844
227
root 2.25383 17.4492 -23.93 1.90195 2.70022 -1.23989
lowerback 19.098 2.9945 2.80017
upperback 2.35665 4.87098 3.92534
thorax -8.25064 2.31396 1.40162
lowerneck -8.07916 -8.26136 -7.56333
upperneck 32.3326 -9.4326 -2.63803
head 12.2745 -5.35269 -0.900301
rclavicle -2.38542e-015 -2.38542e-014
rhumerus -15.992 -46.1152 -68.9733
rradius 27.477
rwrist -18.1363
rhand -18.4016 -3.28659
rfingers 7.12502
rthumb 7.8827 -33.1196
lclavicle -2.38542e-015 -2.38542e-014
lhumerus -41.6181 6.59723 82.7983
lradius 55.3755
lwrist 6.02821
lhand -10.2821 50.2072
lfingers 7.12502
lthumb 15.712 79.5893
rfemur 4.86609 -0.338559 23.1977
rtibia 33.0623
rfoot -18.5178 -23.097
rtoes -5.67973
lfemur -27.9486 -5.87437 -17.1153
ltibia 40.45
lfoot -11.7574 8.14821
ltoes -5.88497
228
root 2.31028 17.4513 -23.7773 1.98745 3.23823 -0.900442
lowerback 18.9822 3.05224 2.53696
upperback 2.0883 4.89758 3.84891
thorax -8.49672 2.33129 1.45978
lowerneck -7.403 -8.49709 -7.6312
upperneck 32.3632 -9.86838 -2.46454
head 12.1756 -5.53487 -0.849341
rclavicle 1.47101e-014 4.77083e-015
rhumerus -18.2489 -44.8862 -67.9142
rradius 29.1153
rwrist -21.4855
rhand -18.7694 -3.87905
rfingers 7.12502
rthumb 7.52772 -33.7251
lclavicle 1.47101e-014 4.77083e-015
lhumerus -42.3828 6.21806 82.6883
lradius 55.6113
lwrist 6.71221
lhand -10.4571 50.0808
lfingers 7.12502
lthumb 15.5434 79.4761
rfemur 4.40737 -0.382154 22.7508
rtibia 34.6706
rfoot -17.6838 -23.3126
rtoes -4.84413
lfemur -27.477 -5.53638 -17.7587
ltibia 40.2775
lfoot -11.836 7.33075
ltoes -7.38446
229
root 2.37014 17.4472 -23.6425 1.88385 4.378 -0.579179
lowerback 19.0182 2.68941 2.38984
upperback 2.27299 4.39259 3.94653
thorax -8.32502 2.09976 1.78087
lowerneck -5.73235 -8.69438 -8.508
upperneck 30.5646 -10.3956 -1.57418
head 11.2582 -5.76907 -0.307277
rclavicle 1.43125e-014 -4.13472e-014
rhumerus -18.6814 -43.6124 -68.0463
rradius 30.5036
rwrist -24.3149
rhand -19.2476 -4.61873
rfingers 7.12502
rthumb 7.06612 -34.4808
lclavicle 1.43125e-014 -4.13472e-014
lhumerus -42.489 6.48462 82.9489
lradius 56.1288
lwrist 8.12631
lhand -11.9253 50.2231
lfingers 7.12502
lthumb 14.129 79.7227
rfemur 3.98458 -1.02548 22.3522
rtibia 36.5015
rfoot -16.6018 -23.7361
rtoes -4.74453
lfemur -26.9723 -5.52799 -18.4437
ltibia 40.1538
lfoot -11.9486 6.41206
ltoes -9.86717
230
root 2.42764 17.453 -23.4857 1.8467 4.96983 -0.145874
lowerback 18.9907 2.60367 2.05895
upperback 2.25877 4.20598 3.87331
thorax -8.33927 2.02069 1.93754
lowerneck -4.80266 -8.77825 -8.62023
upperneck 29.85 -10.6416 -1.33975
head 10.8322 -5.86866 -0.164769
rclavicle -5.1684e-015 -6.36111e-015
rhumerus -19.8761 -42.483 -67.8037
rradius 32.0007
rwrist -27.3123
rhand -19.4095 -4.0876
rfingers 7.12502
rthumb 6.90986 -33.9548
lclavicle -5.1684e-015 -6.36111e-015
lhumerus -42.9284 6.67656 82.6637
lradius 56.0498
lwrist 8.13419
lhand -11.4335 50.3598
lfingers 7.12502
lthumb 14.6029 79.8257
rfemur 3.42904 -1.33958 21.7559
rtibia 38.4766
rfoot -14.6715 -23.7756
rtoes 12.1544
lfemur -26.2697 -5.19827 -19.162
ltibia 40.0333
lfoot -12.3557 5.26074
ltoes -7.48741
231
root 2.48239 17.4616 -23.3431 1.81526 5.86499 0.413337
lowerback 19.0494 2.36063 1.56676
upperback 2.52154 3.77919 3.90515
thorax -8.10653 1.83494 2.36276
lowerneck -5.64838 -8.86418 -8.74568
upperneck 29.9567 -10.6332 -1.45652
head 11.041 -5.88415 -0.235036
rclavicle 7.95139e-015 3.02153e-014
rhumerus -20.0588 -41.2365 -68.1449
rradius 33.592
rwrist -30.803
rhand -19.7224 -4.1256
rfingers 7.12502
rthumb 6.60785 -34.0025
lclavicle 7.95139e-015 3.02153e-014
lhumerus -42.5572 7.31848 82.5993
lradius 55.658
lwrist 8.2488
lhand -10.9041 50.2988
lfingers 7.12502
lthumb 15.1129 79.7271
rfemur 2.72837 -1.88511 21.0563
rtibia 40.5711
rfoot -11.8659 -23.7055
rtoes 12.1544
lfemur -25.6991 -5.18938 -19.9704
ltibia 39.9019
lfoot -12.6606 3.99153
ltoes -2.75996
232
root 2.53684 17.4799 -23.2028 1.8034 6.60988 0.811938
lowerback 18.8678 2.39638 1.30126
upperback 2.51985 3.75965 3.81991
thorax -8.01949 1.83409 2.43156
lowerneck -5.63617 -9.07001 -8.30795
upperneck 30.1265 -10.9386 -1.65966
head 11.0697 -5.99624 -0.415805
rclavicle 1.90833e-014 -4.77083e-015
rhumerus -21.6273 -39.9158 -67.822
rradius 35.8352
rwrist -33.9248
rhand -21.3833 -5.67081
rfingers 7.12502
rthumb 5.00427 -35.5917
lclavicle 1.90833e-014 -4.77083e-015
lhumerus -42.6895 6.62043 82.802
lradius 55.5229
lwrist 9.02804
lhand -11.5535 50.5812
lfingers 7.12502
lthumb 14.4873 80.0554
rfemur 1.81475 -2.25935 20.5496
rtibia 42.7437
rfoot -9.53261 -23.6425
rtoes 12.1544
lfemur -25.2588 -4.78512 -20.7007
ltibia 39.7215
lfoot -12.6452 3.08535
ltoes -4.83488
